<svg width="117" height="32" viewBox="0 0 117 32" fill="none" xmlns="http://www.w3.org/2000/svg">
<path d="M45.2954 0.624603L48.6587 10.7979H48.791L52.1461 0.624603H54.7199L50.1664 13.5406H47.2772L42.7277 0.624603H45.2954Z" fill="#0D014F"/>
<path d="M56.5796 2.47827C56.2335 2.48413 55.899 2.35411 55.6477 2.1161C55.5238 2.00717 55.4247 1.87283 55.3573 1.72222C55.2899 1.5716 55.2557 1.40824 55.2571 1.24324C55.2551 1.07695 55.289 0.912181 55.3564 0.760154C55.4238 0.608127 55.5232 0.472408 55.6477 0.362233C55.9033 0.129185 56.2368 0 56.5826 0C56.9285 0 57.262 0.129185 57.5176 0.362233C57.6413 0.472867 57.7398 0.60877 57.8065 0.760758C57.8732 0.912745 57.9065 1.07728 57.9042 1.24324C57.9057 1.40789 57.8721 1.57098 57.8054 1.72153C57.7387 1.87209 57.6406 2.00663 57.5176 2.1161C57.2648 2.3556 56.9277 2.48574 56.5796 2.47827ZM55.4321 13.5407V3.8537H57.7149V13.5407H55.4321Z" fill="#0D014F"/>
<path d="M66.8302 6.4153L64.7487 6.64115C64.6867 6.42572 64.583 6.22456 64.4435 6.04906C64.2879 5.85487 64.0875 5.70128 63.8596 5.60144C63.5772 5.47974 63.2717 5.4214 62.9643 5.43053C62.5447 5.4163 62.13 5.5237 61.77 5.7398C61.6255 5.81784 61.505 5.93362 61.4211 6.0748C61.3373 6.21597 61.2933 6.37725 61.2939 6.54145C61.2882 6.67217 61.3135 6.80238 61.3675 6.92151C61.4216 7.04065 61.5031 7.14535 61.6052 7.22713C61.9226 7.44921 62.2854 7.59794 62.6673 7.66254L64.3194 8.01657C65.2377 8.21325 65.92 8.52659 66.3663 8.95658C66.5903 9.17443 66.7664 9.43658 66.8834 9.7263C67.0004 10.016 67.0557 10.3269 67.0459 10.6392C67.05 11.2204 66.8627 11.7867 66.5128 12.2507C66.1323 12.7381 65.6277 13.1141 65.0519 13.3392C64.3702 13.6108 63.6411 13.7436 62.9074 13.7299C61.7205 13.7299 60.7662 13.481 60.0446 12.9832C59.6933 12.7472 59.3963 12.4392 59.1732 12.0797C58.95 11.7201 58.806 11.3172 58.7506 10.8976L60.9785 10.684C61.0556 11.0854 61.2862 11.441 61.6215 11.6749C62.0034 11.9099 62.4472 12.0247 62.8952 12.0045C63.3548 12.0263 63.8104 11.9101 64.2034 11.6708C64.3501 11.5881 64.473 11.469 64.5603 11.3251C64.6476 11.1811 64.6964 11.0171 64.7019 10.8488C64.7043 10.7175 64.6767 10.5873 64.6214 10.4682C64.5661 10.349 64.4844 10.244 64.3825 10.1611C64.0905 9.94903 63.7523 9.80954 63.3957 9.75416L61.7436 9.40827C60.8144 9.21566 60.1267 8.88876 59.6804 8.42757C59.4582 8.19496 59.2851 7.91995 59.1715 7.61896C59.0579 7.31798 59.0061 6.99718 59.0192 6.67574C59.003 6.11748 59.175 5.57001 59.5075 5.12126C59.8661 4.66199 60.344 4.31007 60.889 4.10394C61.5411 3.85079 62.2365 3.72775 62.9359 3.74177C64.0712 3.74177 64.9658 3.98321 65.6196 4.4661C66.2613 4.93363 66.6955 5.63283 66.8302 6.4153Z" fill="#0D014F"/>
<path d="M69.1782 2.47827C68.8314 2.48467 68.496 2.3546 68.2443 2.1161C68.1203 2.00717 68.0213 1.87283 67.9539 1.72222C67.8865 1.5716 67.8523 1.40824 67.8536 1.24324C67.8516 1.07695 67.8855 0.912181 67.9529 0.760154C68.0203 0.608127 68.1197 0.472408 68.2443 0.362233C68.4999 0.129185 68.8333 0 69.1792 0C69.5251 0 69.8585 0.129185 70.1141 0.362233C70.2381 0.472765 70.3369 0.608601 70.404 0.760578C70.471 0.912556 70.5047 1.07714 70.5027 1.24324C70.5039 1.40803 70.4699 1.57117 70.4028 1.72171C70.3358 1.87226 70.2374 2.00673 70.1141 2.1161C69.8621 2.35548 69.5257 2.48565 69.1782 2.47827ZM68.0306 13.5407V3.8537H70.3135V13.5407H68.0306Z" fill="#0D014F"/>
<path d="M76.0024 13.7299C75.1412 13.7519 74.2907 13.5357 73.5445 13.1052C72.8508 12.6903 72.2913 12.0842 71.9331 11.3595C71.536 10.5427 71.34 9.64278 71.3614 8.73481C71.3401 7.8249 71.5361 6.92303 71.9331 6.104C72.2899 5.37625 72.8495 4.76717 73.5445 4.35014C74.2993 3.9402 75.1445 3.72546 76.0034 3.72546C76.8623 3.72546 77.7075 3.9402 78.4623 4.35014C79.1573 4.76717 79.7169 5.37625 80.0737 6.104C80.4695 6.92272 80.6654 7.82364 80.6455 8.73277C80.6659 9.64065 80.4699 10.5403 80.0737 11.3575C79.7155 12.0822 79.1561 12.6883 78.4623 13.1032C77.7157 13.5347 76.8644 13.7516 76.0024 13.7299ZM76.0166 11.8987C76.4823 11.9152 76.9385 11.7643 77.3025 11.4734C77.6607 11.1699 77.9282 10.7736 78.0757 10.3279C78.252 9.8134 78.3394 9.27259 78.3341 8.72871C78.3391 8.18218 78.2518 7.63874 78.0757 7.12133C77.9272 6.67444 77.6599 6.27636 77.3025 5.96972C76.9388 5.67809 76.4826 5.5265 76.0166 5.54244C75.543 5.52495 75.0786 5.67639 74.7063 5.96972C74.3476 6.27562 74.0795 6.67389 73.9311 7.12133C73.756 7.64027 73.67 8.18512 73.6768 8.73277C73.6699 9.27711 73.756 9.81862 73.9311 10.334C74.0786 10.7802 74.347 11.1767 74.7063 11.4796C75.0793 11.7709 75.5437 11.9201 76.0166 11.9007V11.8987Z" fill="#0D014F"/>
<path d="M83.9701 7.86394V13.5406H81.6872V3.85364H83.8683V5.49357H83.9823C84.1964 4.96513 84.5688 4.51594 85.0484 4.20767C85.5978 3.86975 86.2351 3.70262 86.8796 3.72749C87.4906 3.71351 88.0943 3.86163 88.6294 4.1568C89.1311 4.44565 89.535 4.87786 89.7892 5.39794C90.0811 6.0144 90.2206 6.69195 90.1961 7.37358V13.5406H87.897V7.73168C87.9295 7.17983 87.7505 6.63632 87.3964 6.2118C87.2188 6.02579 87.0029 5.88054 86.7637 5.78604C86.5245 5.69155 86.2676 5.65008 86.0108 5.66448C85.6401 5.65683 85.2739 5.74663 84.9487 5.92491C84.6431 6.09991 84.3949 6.36007 84.2346 6.67366C84.0494 7.04246 83.9585 7.45142 83.9701 7.86394Z" fill="#0D014F"/>
<path d="M94.4078 13.736C93.8386 13.7451 93.274 13.6328 92.7516 13.4064C92.2782 13.1987 91.8753 12.858 91.5919 12.4257C91.2942 11.9453 91.1462 11.3872 91.1666 10.8224C91.1487 10.3523 91.2524 9.88556 91.4678 9.46732C91.6655 9.11544 91.9499 8.8199 92.2938 8.60869C92.6619 8.38754 93.061 8.22293 93.478 8.12038C93.9265 8.0064 94.3829 7.92548 94.8432 7.87825C95.4109 7.81925 95.8707 7.76431 96.2248 7.71752C96.4947 7.69488 96.7571 7.61733 96.9959 7.48963C97.076 7.43847 97.141 7.36674 97.1839 7.28191C97.2269 7.19709 97.2463 7.1023 97.2401 7.00742V6.96876C97.2525 6.76537 97.2212 6.56168 97.1482 6.37143C97.0752 6.18119 96.9622 6.00882 96.8169 5.86598C96.4751 5.58402 96.038 5.44417 95.5961 5.47533C95.1255 5.45001 94.6593 5.57778 94.2674 5.83953C93.9675 6.05831 93.7418 6.36361 93.6204 6.71443L91.4901 6.41127C91.6392 5.85625 91.9253 5.3476 92.3223 4.93208C92.7212 4.52719 93.2088 4.22069 93.7466 4.03683C94.3433 3.83128 94.971 3.7301 95.6022 3.73774C96.0716 3.73819 96.5393 3.7935 96.9959 3.90254C97.4469 4.00626 97.876 4.18879 98.2635 4.44173C98.6518 4.69804 98.9695 5.04787 99.1872 5.45905C99.4357 5.95814 99.556 6.51126 99.5372 7.06846V13.5407H97.3357V12.208H97.2563C97.1066 12.4913 96.909 12.7467 96.6724 12.9628C96.3983 13.2091 96.0791 13.3998 95.7324 13.5244C95.3071 13.6736 94.8584 13.7452 94.4078 13.736ZM95.0182 12.0595C95.4325 12.0699 95.8426 11.9754 96.2105 11.7848C96.5311 11.6165 96.8003 11.3649 96.9898 11.0564C97.1688 10.7572 97.2611 10.4141 97.2563 10.0655V8.92406C97.1468 9.00087 97.024 9.05674 96.8942 9.08887C96.7061 9.14298 96.5152 9.18713 96.3224 9.22112C96.119 9.25978 95.9033 9.29234 95.6978 9.32286L95.1627 9.39814C94.8496 9.43675 94.5422 9.51257 94.2471 9.62398C94.0011 9.7143 93.782 9.8655 93.6102 10.0635C93.4249 10.3181 93.3451 10.6345 93.3876 10.9465C93.4301 11.2586 93.5915 11.5422 93.8381 11.738C94.1884 11.9654 94.601 12.0778 95.0182 12.0595Z" fill="#0D014F"/>
<path d="M100.945 13.5406V3.85364H103.157V5.46915H103.257C103.408 4.94618 103.731 4.48954 104.174 4.17308C104.606 3.86757 105.124 3.70726 105.653 3.71528C105.78 3.71528 105.922 3.71528 106.079 3.73156C106.211 3.73782 106.343 3.75345 106.473 3.77836V5.87812C106.324 5.83432 106.17 5.80368 106.016 5.78656C105.813 5.75997 105.609 5.74638 105.405 5.74587C105.015 5.73952 104.63 5.83192 104.286 6.01444C103.964 6.18582 103.694 6.44188 103.507 6.75505C103.314 7.08563 103.216 7.463 103.224 7.84563V13.5427L100.945 13.5406Z" fill="#0D014F"/>
<path d="M108.823 17.1745C108.535 17.1765 108.247 17.152 107.963 17.1013C107.748 17.0658 107.538 17.0099 107.334 16.9344L107.865 15.1561C108.153 15.2455 108.453 15.2921 108.754 15.2945C109.004 15.2948 109.247 15.2109 109.444 15.0564C109.68 14.8444 109.856 14.5734 109.953 14.2711L110.156 13.7461L106.642 3.85773H109.057L111.295 11.1825H111.397L113.635 3.85773H116.057L112.178 14.7146C112.016 15.1925 111.773 15.639 111.46 16.0351C111.168 16.4017 110.793 16.6938 110.366 16.8876C109.878 17.0919 109.352 17.1897 108.823 17.1745Z" fill="#0D014F"/>
<path d="M42.7277 18.8858H45.5904L49.4258 28.2452H49.5763L53.4116 18.8858H56.2744V31.8017H54.0363V22.9286H53.9162L50.3475 31.7631H48.6628L45.094 22.9083H44.9739V31.8017H42.7358L42.7277 18.8858Z" fill="#0D014F"/>
<path d="M62.061 31.991C61.1991 32.0133 60.3478 31.7972 59.6011 31.3664C58.9077 30.9509 58.3484 30.3449 57.9896 29.6206C57.6128 28.7958 57.4178 27.8997 57.4178 26.9929C57.4178 26.0861 57.6128 25.1899 57.9896 24.3651C58.3471 23.6383 58.9066 23.03 59.6011 22.6133C60.3562 22.2033 61.2018 21.9886 62.061 21.9886C62.9202 21.9886 63.7657 22.2033 64.5209 22.6133C65.2144 23.0312 65.7736 23.6392 66.1323 24.3651C66.5077 25.1903 66.7019 26.0863 66.7019 26.9929C66.7019 27.8994 66.5077 28.7954 66.1323 29.6206C65.7723 30.3441 65.2132 30.9497 64.5209 31.3664C63.7741 31.7972 62.9228 32.0133 62.061 31.991ZM62.0732 30.1598C62.5387 30.1754 62.9946 30.0247 63.3591 29.7346C63.7174 29.4313 63.985 29.0348 64.1322 28.589C64.3084 28.0739 64.3944 27.5322 64.3866 26.9878C64.3944 26.4401 64.3083 25.895 64.1322 25.3763C63.985 24.9288 63.7176 24.5304 63.3591 24.2247C62.9955 23.9325 62.5393 23.7802 62.0732 23.7954C61.5999 23.7783 61.136 23.9305 60.7649 24.2247C60.4046 24.5296 60.1356 24.9281 59.9876 25.3763C59.8125 25.8953 59.7265 26.4401 59.7333 26.9878C59.7265 27.5321 59.8125 28.0736 59.9876 28.589C60.1356 29.0355 60.4047 29.4321 60.7649 29.7346C61.1366 30.0274 61.6002 30.1788 62.0732 30.1618V30.1598Z" fill="#0D014F"/>
<path d="M67.7437 31.8016V22.1147H69.9269V23.7607H70.0388C70.2235 23.2295 70.5755 22.7726 71.0419 22.4585C71.5391 22.1364 72.1222 21.9725 72.7144 21.9885C73.304 21.9694 73.8848 22.1359 74.3747 22.4646C74.8267 22.7803 75.1626 23.2357 75.331 23.7607H75.4327C75.6444 23.2237 76.026 22.7706 76.5192 22.4707C77.0704 22.137 77.7063 21.9695 78.3504 21.9885C78.7523 21.9731 79.1531 22.0401 79.5282 22.1853C79.9033 22.3305 80.2447 22.5509 80.5315 22.8329C81.0945 23.3972 81.3766 24.2192 81.3779 25.2989V31.8098H79.0768V25.6529C79.0768 25.0425 78.9181 24.6112 78.5986 24.3304C78.2732 24.0493 77.8545 23.8998 77.4246 23.9113C77.1851 23.8977 76.9455 23.9368 76.7226 24.0257C76.4998 24.1147 76.2991 24.2513 76.1347 24.426C75.8129 24.7937 75.644 25.2705 75.6626 25.7587V31.8016H73.4245V25.5573C73.4393 25.3389 73.4074 25.1198 73.3311 24.9147C73.2548 24.7095 73.1357 24.5229 72.9818 24.3672C72.8279 24.2116 72.6426 24.0904 72.4383 24.0118C72.234 23.9332 72.0153 23.8989 71.7968 23.9113C71.4806 23.908 71.1701 23.9948 70.9015 24.1615C70.6274 24.3319 70.4051 24.5739 70.2586 24.8614C70.0926 25.186 70.0101 25.5469 70.0185 25.9113V31.8118L67.7437 31.8016Z" fill="#0D014F"/>
<path d="M85.5877 31.997C85.0182 32.0064 84.4534 31.8933 83.9314 31.6654C83.4573 31.4589 83.0541 31.1179 82.7717 30.6847C82.4744 30.2048 82.3264 29.6475 82.3465 29.0834C82.3282 28.6133 82.432 28.1465 82.6476 27.7283C82.8447 27.376 83.1292 27.0803 83.4737 26.8697C83.8417 26.6485 84.2409 26.4839 84.6578 26.3814C85.1065 26.2677 85.5628 26.1861 86.0231 26.1372C86.5907 26.0802 87.0506 26.0253 87.4046 25.9765C87.6745 25.9553 87.9371 25.8784 88.1757 25.7506C88.2559 25.6995 88.3208 25.6277 88.3637 25.5429C88.4067 25.4581 88.4261 25.3633 88.4199 25.2684V25.2298C88.4323 25.0264 88.401 24.8227 88.328 24.6324C88.255 24.4422 88.142 24.2698 87.9967 24.127C87.6551 23.8445 87.2181 23.7039 86.7759 23.7343C86.305 23.7087 85.8385 23.8372 85.4473 24.1005C85.1445 24.3148 84.9145 24.6165 84.788 24.9653L82.6578 24.6621C82.8068 24.1071 83.0929 23.5984 83.4899 23.1829C83.8888 22.778 84.3764 22.4715 84.9142 22.2877C85.5109 22.0821 86.1387 21.9809 86.7698 21.9886C87.2391 21.9893 87.7067 22.0439 88.1635 22.1513C88.6139 22.2568 89.0427 22.4392 89.4311 22.6905C89.8193 22.947 90.1369 23.2968 90.3548 23.7078C90.6045 24.2065 90.7248 24.7599 90.7048 25.3173V31.8017H88.5074V30.471H88.4321C88.2828 30.7541 88.0852 31.0088 87.8482 31.2238C87.5752 31.4716 87.2556 31.6625 86.9081 31.7854C86.4844 31.9351 86.037 32.0068 85.5877 31.997ZM86.1797 30.3205C86.594 30.3311 87.0042 30.2366 87.372 30.0458C87.6926 29.8775 87.9618 29.6259 88.1513 29.3174C88.3332 29.019 88.4283 28.6759 88.426 28.3265V27.1851C88.3165 27.2619 88.1937 27.3177 88.0638 27.3499C87.8929 27.3987 87.7017 27.4435 87.4921 27.4821C87.2825 27.5208 87.0729 27.5533 86.8674 27.5818L86.3323 27.6591C86.0191 27.6968 85.7116 27.7726 85.4167 27.885C85.1707 27.9753 84.9516 28.1265 84.7799 28.3245C84.5946 28.5791 84.5148 28.8955 84.5572 29.2075C84.5997 29.5196 84.7611 29.8032 85.0078 29.999C85.3563 30.2233 85.7657 30.3342 86.1797 30.3164V30.3205Z" fill="#0D014F"/>
<path d="M99.4213 24.6741L97.3399 24.902C97.2779 24.6861 97.1735 24.4848 97.0326 24.3099C96.8769 24.1162 96.6775 23.9621 96.4507 23.8603C96.1132 23.7284 95.7508 23.6727 95.3892 23.6969C95.0277 23.7212 94.676 23.8249 94.3591 24.0007C94.2148 24.0784 94.0943 24.1938 94.0104 24.3346C93.9266 24.4754 93.8825 24.6364 93.883 24.8003C93.8773 24.9313 93.9025 25.0618 93.9566 25.1813C94.0107 25.3007 94.0921 25.4058 94.1943 25.488C94.5107 25.7092 94.8719 25.8578 95.2523 25.9234L96.9044 26.2774C97.82 26.4755 98.5023 26.7888 98.9513 27.2174C99.1754 27.4351 99.3515 27.6973 99.4682 27.9871C99.5849 28.2769 99.6396 28.5879 99.6288 28.9001C99.6348 29.484 99.4474 30.0535 99.0958 30.5197C98.7153 31.0071 98.2107 31.3831 97.6349 31.6082C96.9532 31.88 96.2241 32.0128 95.4904 31.9989C94.3062 31.9989 93.3519 31.75 92.6276 31.2522C92.2768 31.0159 91.9802 30.7078 91.7574 30.3483C91.5347 29.9887 91.3909 29.586 91.3356 29.1666L93.5615 28.953C93.6394 29.3541 93.8699 29.7094 94.2045 29.9439C94.5877 30.1815 95.0338 30.2978 95.4843 30.2776C95.9445 30.2992 96.4007 30.183 96.7946 29.9439C96.9413 29.8601 97.064 29.7399 97.1506 29.5948C97.2372 29.4497 97.2849 29.2847 97.289 29.1158C97.2918 28.9847 97.2644 28.8546 97.2091 28.7358C97.1537 28.6169 97.0717 28.5123 96.9696 28.4301C96.6786 28.2144 96.3402 28.0714 95.9828 28.013L94.3306 27.6671C93.4015 27.4745 92.7137 27.1476 92.2675 26.6864C92.0452 26.4538 91.8721 26.1788 91.7585 25.8778C91.6449 25.5768 91.5931 25.256 91.6062 24.9346C91.5901 24.3763 91.7621 23.8288 92.0945 23.3801C92.4536 22.9213 92.9313 22.5695 93.4761 22.3628C94.1282 22.1098 94.8235 21.9867 95.5229 22.0006C96.6583 22.0006 97.5528 22.242 98.2066 22.7249C98.8489 23.1926 99.2844 23.8915 99.4213 24.6741Z" fill="#0D014F"/>
<path d="M13.1429 31.7402C8.82512 31.7402 4.5261 28.4766 2.26584 24.8684C-1.84357 18.315 -0.217831 9.50152 5.96412 4.80925C6.79201 4.18199 7.70813 3.94232 8.5454 4.13331C9.6868 4.3917 10.327 5.33165 10.7024 6.01508C12.4652 9.16448 13.1072 12.6378 13.7268 15.9969C13.967 17.3076 14.2148 18.6483 14.5246 19.929C15.3149 23.1982 16.3794 25.5706 17.7498 27.0835C20.0551 24.7598 20.9919 21.0449 21.8292 17.7214L22.0376 16.9181C22.9443 13.3025 23.8829 9.56331 25.9461 6.16862C26.9786 4.47034 28.3021 4.31493 29.0005 4.37298C32.4866 4.6632 35.1955 11.0687 35.2143 11.1324C36.9884 15.5869 36.3782 20.9981 33.6186 25.2523C31.0749 29.175 27.1063 31.5342 22.7303 31.7289C21.8469 31.7733 20.9618 31.6907 20.1021 31.4836C19.249 31.2733 18.436 30.9255 17.6954 30.4538C16.766 31.0083 15.7461 31.3955 14.6823 31.5979C14.1748 31.6936 13.6594 31.7413 13.1429 31.7402ZM7.96156 6.69102C7.81235 6.72521 7.67378 6.79527 7.55794 6.89512C5.09753 8.8023 3.42599 11.5451 2.86141 14.6017C2.29683 17.6582 2.87862 20.8151 4.49607 23.4716C6.50102 26.6715 10.5804 29.7011 14.1923 29.0139C14.6701 28.9246 15.1365 28.7833 15.5834 28.5926C13.2593 25.8683 12.3544 22.1216 11.9734 20.5413C11.6467 19.1913 11.3914 17.8075 11.1455 16.4688C10.5372 13.1752 9.96276 10.0632 8.41211 7.29394C8.14929 6.82209 8.00099 6.71162 7.96156 6.69102ZM19.8862 28.6526C20.1615 28.77 20.4459 28.8652 20.7366 28.9372C21.3509 29.0837 21.9832 29.1411 22.6139 29.1076C26.1319 28.9521 29.3403 27.0273 31.4165 23.8274C33.72 20.2698 34.2419 15.776 32.7757 12.0986C32.0154 10.1906 29.8809 7.07487 28.7846 6.98312C28.5762 6.96627 28.3246 7.31641 28.197 7.52612C26.3366 10.5819 25.4862 13.9691 24.5944 17.5529L24.3917 18.3618C23.5319 21.7396 22.505 25.8177 19.8862 28.6526Z" fill="#0D014F"/>
<path d="M18.1317 18.9167C17.3404 18.9167 16.8922 18.2636 16.7404 18.0422C16.0578 17.0476 14.959 14.4372 14.2671 11.5584C13.6521 8.99872 13.172 5.41623 14.374 2.89216C15.4747 0.587663 17.4004 0.240486 18.818 0.919826C20.5187 1.73241 21.6813 3.95621 21.9269 6.86687C22.1144 9.15823 21.8369 12.9715 19.3861 18.1266C19.2831 18.3489 19.1229 18.5397 18.9219 18.6795C18.7209 18.8193 18.4864 18.9031 18.2423 18.9223L18.1317 18.9167ZM17.5054 3.24685C17.2466 3.24685 16.9898 3.5077 16.7441 4.02377C15.4747 6.68671 16.8735 11.8493 18.0004 14.6962C20.5487 7.9403 18.9605 3.89616 17.6929 3.29189C17.6346 3.26284 17.5705 3.24744 17.5054 3.24685Z" fill="#0D014F"/>
</svg>
