<svg width="31" height="31" viewBox="0 0 31 31" fill="none" xmlns="http://www.w3.org/2000/svg">
<rect width="31" height="31" rx="6" fill="#33ABD1"/>
<path d="M8 12.5V8H9V12.5C9 12.8978 9.15804 13.2794 9.43934 13.5607C9.72064 13.842 10.1022 14 10.5 14C10.8978 14 11.2794 13.842 11.5607 13.5607C11.842 13.2794 12 12.8978 12 12.5V9.5C12 9.36739 11.9473 9.24021 11.8536 9.14645C11.7598 9.05268 11.6326 9 11.5 9C11.3674 9 11.2402 9.05268 11.1464 9.14645C11.0527 9.24021 11 9.36739 11 9.5V13H10V9.5C10 9.30302 10.0388 9.10796 10.1142 8.92597C10.1896 8.74399 10.3001 8.57863 10.4393 8.43934C10.5786 8.30005 10.744 8.18956 10.926 8.11418C11.108 8.0388 11.303 8 11.5 8C11.697 8 11.892 8.0388 12.074 8.11418C12.256 8.18956 12.4214 8.30005 12.5607 8.43934C12.6999 8.57863 12.8104 8.74399 12.8858 8.92597C12.9612 9.10796 13 9.30302 13 9.5V12.5C13 13.163 12.7366 13.7989 12.2678 14.2678C11.7989 14.7366 11.163 15 10.5 15C9.83696 15 9.20107 14.7366 8.73223 14.2678C8.26339 13.7989 8 13.163 8 12.5Z" fill="white"/>
<path fill-rule="evenodd" clip-rule="evenodd" d="M20.5 8H14V12.5C14 13.4283 13.6313 14.3185 12.9749 14.9749C12.3185 15.6313 11.4283 16 10.5 16H9V21.5C9 21.8978 9.15804 22.2794 9.43934 22.5607C9.72064 22.842 10.1022 23 10.5 23H20.5C20.8978 23 21.2794 22.842 21.5607 22.5607C21.842 22.2794 22 21.8978 22 21.5V9.5C22 9.10218 21.842 8.72064 21.5607 8.43934C21.2794 8.15804 20.8978 8 20.5 8ZM19 12H15V13H19V12ZM19 15H15V16H19V15ZM12 18H19V19H12V18Z" fill="white"/>
</svg>
