<svg width="31" height="31" viewBox="0 0 31 31" fill="none" xmlns="http://www.w3.org/2000/svg">
<rect width="31" height="31" rx="6" fill="#FF5C5C"/>
<g clip-path="url(#clip0_1_1013)">
<path d="M15.5 5.5C13.5551 5.5 11.6898 6.27262 10.3146 7.64788C8.93929 9.02315 8.16668 10.8884 8.16668 12.8333V18.8333H6.83334V20.1667H24.1667V18.8333H22.8333V12.8333C22.8333 10.8884 22.0607 9.02315 20.6855 7.64788C19.3102 6.27262 17.4449 5.5 15.5 5.5ZM12.1667 22.1667V21.5H18.8333V22.1667C18.8333 23.0507 18.4822 23.8986 17.857 24.5237C17.2319 25.1488 16.3841 25.5 15.5 25.5C14.616 25.5 13.7681 25.1488 13.143 24.5237C12.5179 23.8986 12.1667 23.0507 12.1667 22.1667Z" fill="white"/>
</g>
<defs>
<clipPath id="clip0_1_1013">
<rect width="20" height="20" fill="white" transform="translate(5.5 5.5)"/>
</clipPath>
</defs>
</svg>
